<?xml version="1.0" standalone="no"?>
<!DOCTYPE svg PUBLIC "-//W3C//DTD SVG 20010904//EN"
 "http://www.w3.org/TR/2001/REC-SVG-20010904/DTD/svg10.dtd">
<svg version="1.0" xmlns="http://www.w3.org/2000/svg"
 width="59.000000pt" height="63.000000pt" viewBox="0 0 59.000000 63.000000"
 preserveAspectRatio="xMidYMid meet">

<g transform="translate(0.000000,63.000000) scale(0.100000,-0.100000)"
fill="#000000" stroke="none">
<path d="M201 434 c-17 -14 -35 -40 -39 -57 -11 -41 -1 -91 19 -95 13 -2 15 6
11 51 -4 46 -1 57 20 81 15 18 39 31 64 36 l39 8 -42 1 c-31 1 -49 -5 -72 -25z"/>
<path d="M310 427 c25 -8 40 -23 53 -49 17 -35 17 -40 3 -69 -12 -24 -13 -35
-5 -45 6 -8 9 -25 7 -39 -3 -14 -1 -25 3 -25 5 0 9 5 9 10 0 6 16 10 35 10 19
0 35 -4 35 -10 0 -5 9 -10 20 -10 16 0 20 7 20 35 0 28 -4 35 -20 35 -11 0
-20 -4 -20 -10 0 -15 -59 -12 -75 4 -12 12 -12 15 -1 19 21 8 30 64 16 98 -14
33 -56 59 -92 58 -18 0 -15 -3 12 -12z m128 -194 c-10 -2 -28 -2 -40 0 -13 2
-5 4 17 4 22 1 32 -1 23 -4z"/>
<path d="M252 384 c-25 -18 -30 -65 -8 -83 8 -7 30 -11 48 -9 28 2 34 7 36 31
3 24 0 27 -25 26 -17 -1 -21 -3 -10 -6 9 -2 17 -13 17 -24 0 -30 -47 -26 -62
6 -15 33 5 58 44 53 30 -5 38 6 12 16 -22 9 -27 8 -52 -10z"/>
<path d="M70 235 c0 -27 4 -35 18 -35 13 0 17 8 17 35 0 27 -4 35 -17 35 -14
0 -18 -8 -18 -35z"/>
<path d="M180 261 c0 -6 -13 -11 -30 -11 -20 0 -30 -5 -30 -15 0 -8 5 -15 10
-15 6 0 10 5 10 10 0 6 12 10 26 10 21 0 25 -4 21 -20 -4 -16 0 -20 19 -20 24
0 24 1 9 29 -16 32 -35 49 -35 32z"/>
<path d="M210 266 c0 -2 6 -9 14 -15 10 -9 16 -8 26 4 11 13 8 15 -14 15 -14
0 -26 -2 -26 -4z"/>
<path d="M258 245 c-23 -31 -23 -45 2 -45 11 0 20 5 20 10 0 6 16 10 35 10 24
0 35 5 35 15 0 10 -10 15 -34 15 -19 0 -36 4 -38 9 -1 5 -11 -1 -20 -14z"/>
</g>
</svg>
